<mxfile host="65bd71144e">
    <diagram id="sxWB467OlaBtlCuc0yyY" name="Page-1">
        <mxGraphModel dx="2238" dy="734" grid="1" gridSize="10" guides="1" tooltips="1" connect="1" arrows="1" fold="1" page="1" pageScale="1" pageWidth="827" pageHeight="1169" math="0" shadow="0">
            <root>
                <mxCell id="0"/>
                <mxCell id="1" parent="0"/>
                <mxCell id="2" value="Model" style="rounded=1;whiteSpace=wrap;html=1;fillColor=#b0e3e6;strokeColor=#0e8088;verticalAlign=top;" vertex="1" parent="1">
                    <mxGeometry x="-10" y="100" width="560" height="700" as="geometry"/>
                </mxCell>
                <mxCell id="3" value="View" style="rounded=1;whiteSpace=wrap;html=1;fillColor=#b0e3e6;strokeColor=#0e8088;align=center;verticalAlign=top;" vertex="1" parent="1">
                    <mxGeometry x="-10" y="850" width="610" height="300" as="geometry"/>
                </mxCell>
                <mxCell id="4" value="Controller" style="rounded=1;whiteSpace=wrap;html=1;fillColor=#b0e3e6;strokeColor=#0e8088;verticalAlign=top;" vertex="1" parent="1">
                    <mxGeometry x="720" y="110" width="380" height="460" as="geometry"/>
                </mxCell>
                <mxCell id="5" value="ViewController.swift" style="rounded=1;whiteSpace=wrap;html=1;verticalAlign=top;fillColor=#1ba1e2;strokeColor=#006EAF;fontColor=#ffffff;" vertex="1" parent="1">
                    <mxGeometry x="730" y="190" width="360" height="350" as="geometry"/>
                </mxCell>
                <mxCell id="6" value="ViewController: UIViewController&lt;div&gt;Class&lt;/div&gt;" style="rounded=1;whiteSpace=wrap;html=1;fillColor=#647687;fontColor=#ffffff;strokeColor=#314354;" vertex="1" parent="1">
                    <mxGeometry x="730" y="240" width="360" height="60" as="geometry"/>
                </mxCell>
                <mxCell id="7" value="ViewController: UIPickerViewDelegate, UIPickerViewDataSource&lt;div&gt;Extension&lt;/div&gt;" style="rounded=1;whiteSpace=wrap;html=1;fillColor=#647687;fontColor=#ffffff;strokeColor=#314354;" vertex="1" parent="1">
                    <mxGeometry x="730" y="310" width="360" height="60" as="geometry"/>
                </mxCell>
                <mxCell id="8" value="ViewController: CoinManagerDelegate&lt;div&gt;Extension&lt;/div&gt;" style="rounded=1;whiteSpace=wrap;html=1;fillColor=#647687;fontColor=#ffffff;strokeColor=#314354;verticalAlign=top;" vertex="1" parent="1">
                    <mxGeometry x="730" y="380" width="360" height="120" as="geometry"/>
                </mxCell>
                <mxCell id="9" value="CoinData.swift" style="rounded=1;whiteSpace=wrap;html=1;verticalAlign=top;fillColor=#1ba1e2;strokeColor=#006EAF;fontColor=#ffffff;" vertex="1" parent="1">
                    <mxGeometry x="5" y="150" width="535" height="160" as="geometry"/>
                </mxCell>
                <mxCell id="10" value="CoinData&lt;div&gt;Struct&lt;/div&gt;" style="rounded=1;whiteSpace=wrap;html=1;fillColor=#647687;fontColor=#ffffff;strokeColor=#314354;" vertex="1" parent="1">
                    <mxGeometry x="20" y="230" width="510" height="60" as="geometry"/>
                </mxCell>
                <mxCell id="11" value="CoinModel.swift" style="rounded=1;whiteSpace=wrap;html=1;verticalAlign=top;fillColor=#1ba1e2;strokeColor=#006EAF;fontColor=#ffffff;" vertex="1" parent="1">
                    <mxGeometry x="5" y="330" width="535" height="100" as="geometry"/>
                </mxCell>
                <mxCell id="12" value="CoinModel&lt;div&gt;Struct&lt;/div&gt;" style="rounded=1;whiteSpace=wrap;html=1;fillColor=#647687;fontColor=#ffffff;strokeColor=#314354;" vertex="1" parent="1">
                    <mxGeometry x="20" y="360" width="510" height="60" as="geometry"/>
                </mxCell>
                <mxCell id="13" value="CoinManager.swift" style="rounded=1;whiteSpace=wrap;html=1;verticalAlign=top;fillColor=#1ba1e2;strokeColor=#006EAF;fontColor=#ffffff;" vertex="1" parent="1">
                    <mxGeometry x="5" y="450" width="535" height="330" as="geometry"/>
                </mxCell>
                <mxCell id="14" value="CoinManager&lt;div&gt;Struct&lt;/div&gt;" style="rounded=1;whiteSpace=wrap;html=1;fillColor=#647687;fontColor=#ffffff;strokeColor=#314354;verticalAlign=top;align=center;" vertex="1" parent="1">
                    <mxGeometry x="20" y="540" width="510" height="230" as="geometry"/>
                </mxCell>
                <mxCell id="15" value="CoinManagerDelegate&lt;div&gt;Protocol&lt;/div&gt;" style="rounded=1;whiteSpace=wrap;html=1;fillColor=#647687;fontColor=#ffffff;strokeColor=#314354;" vertex="1" parent="1">
                    <mxGeometry x="20" y="480" width="510" height="40" as="geometry"/>
                </mxCell>
                <mxCell id="16" value="delegate&lt;div&gt;CoinManagerDelegate&lt;div&gt;var&lt;/div&gt;&lt;/div&gt;" style="rounded=1;whiteSpace=wrap;html=1;fillColor=#b0e3e6;strokeColor=#0e8088;" vertex="1" parent="1">
                    <mxGeometry x="30" y="560" width="210" height="50" as="geometry"/>
                </mxCell>
                <mxCell id="17" value="performRequest (urlString, Currency)&lt;div&gt;func&lt;/div&gt;" style="rounded=1;whiteSpace=wrap;html=1;fillColor=#b0e3e6;strokeColor=#0e8088;" vertex="1" parent="1">
                    <mxGeometry x="30" y="620" width="210" height="50" as="geometry"/>
                </mxCell>
                <mxCell id="18" value="parseJson(CoinData) -&amp;gt; CoinModel&lt;div&gt;func&lt;/div&gt;" style="rounded=1;whiteSpace=wrap;html=1;fillColor=#b0e3e6;strokeColor=#0e8088;" vertex="1" parent="1">
                    <mxGeometry x="30" y="680" width="210" height="50" as="geometry"/>
                </mxCell>
                <mxCell id="19" value="didUpdatePrice(CoinManager, CoinModel)&lt;div&gt;func&lt;/div&gt;" style="rounded=1;whiteSpace=wrap;html=1;fillColor=#b0e3e6;strokeColor=#0e8088;" vertex="1" parent="1">
                    <mxGeometry x="730" y="425" width="360" height="50" as="geometry"/>
                </mxCell>
                <mxCell id="20" value="Outlets" style="rounded=1;whiteSpace=wrap;html=1;fillColor=#d0cee2;strokeColor=#56517e;" vertex="1" parent="1">
                    <mxGeometry x="100" y="930" width="150" height="140" as="geometry"/>
                </mxCell>
                <mxCell id="21" value="Actions" style="rounded=1;whiteSpace=wrap;html=1;fillColor=#d0cee2;strokeColor=#56517e;" vertex="1" parent="1">
                    <mxGeometry x="290" y="930" width="150" height="140" as="geometry"/>
                </mxCell>
            </root>
        </mxGraphModel>
    </diagram>
</mxfile>